<svg xmlns="http://www.w3.org/2000/svg" viewBox="0 0 20.9 20.5"><defs><style>.cls-1{fill:#254154;}</style></defs><g id="Calque_2" data-name="Calque 2"><g id="Calque_1-2" data-name="Calque 1"><path class="cls-1" d="M10.35,1.81a43.84,43.84,0,0,1-1,4.37C9.17,6.8,9,7.42,8.75,8S8.31,9.2,8.07,9.72A22.39,22.39,0,0,1,6.2,13.07c-.19.28-.39.56-.59.83.23-.3-.34.4-.4.46a16.8,16.8,0,0,1-1.38,1.42,2.53,2.53,0,0,0,0,3.54,2.56,2.56,0,0,0,3.54,0c4.51-4.18,6.74-10.25,7.8-16.18A2.57,2.57,0,0,0,13.42.06a2.53,2.53,0,0,0-3.07,1.75Z"/><path class="cls-1" d="M2.18,7.82C4.34,10.06,7,11.8,9,14.21c.18.21-.39-.52-.15-.19l.23.31.51.7c.36.51.71,1,1.06,1.55.58.88,1.17,1.76,1.68,2.69a2.5,2.5,0,1,0,4.31-2.53,43.24,43.24,0,0,0-4-6C10.63,8.28,7.89,6.55,5.71,4.28a2.52,2.52,0,0,0-3.53,0,2.55,2.55,0,0,0,0,3.54Z"/><path class="cls-1" d="M17.72,7.45a34.05,34.05,0,0,1-7.6,1.22,31.76,31.76,0,0,0-8.26,1.57A2.56,2.56,0,0,0,.11,13.31a2.53,2.53,0,0,0,3.07,1.75,26.66,26.66,0,0,1,7.51-1.44,40.71,40.71,0,0,0,8.36-1.34,2.5,2.5,0,0,0-1.33-4.83Z"/></g></g></svg>